<?xml version="1.0" encoding="UTF-8"?>
<svg version="1.1" xmlns="http://www.w3.org/2000/svg" width="512" height="512">
<path d="M0 0 C1.02222656 0.45117188 2.04445313 0.90234375 3.09765625 1.3671875 C30.75016898 14.26440687 52.45982638 39.0604644 63.36572266 67.31689453 C74.24240394 97.22069795 73.31270526 131.06660792 60 160 C59.54882812 161.02222656 59.09765625 162.04445312 58.6328125 163.09765625 C48.39902469 185.03959114 29.7213036 201.44850613 12.89465261 218.30553603 C11.33404459 219.86910624 9.77401208 221.43324855 8.21413994 222.99755287 C3.30955176 227.91574925 -1.596985 232.83198897 -6.50643629 237.74533099 C-12.13102988 243.37441019 -17.74900591 249.00998581 -23.36136621 254.65126151 C-27.73260698 259.04422457 -32.10969859 263.43130292 -36.49114805 267.81408387 C-39.09395592 270.41793084 -41.69436791 273.02405877 -44.28864861 275.63640404 C-47.18394765 278.55147988 -50.09132335 281.45422863 -52.99975586 284.35620117 C-53.83700195 285.20266205 -54.67424805 286.04912292 -55.53686523 286.92123413 C-63.62065002 294.94932598 -72.57923678 302.07676727 -82.5625 307.625 C-83.53944824 308.18199585 -83.53944824 308.18199585 -84.53613281 308.75024414 C-89.11920872 311.25779214 -93.73092083 313.00085393 -98.69458008 314.60766602 C-106.03574902 316.72042202 -106.03574902 316.72042202 -111.9140625 321.234375 C-112.92673248 323.81956504 -113.47092418 326.27681564 -114 329 C-114.74729441 330.99634363 -115.54144902 332.97560562 -116.375 334.9375 C-116.79910156 335.94554687 -117.22320312 336.95359375 -117.66015625 337.9921875 C-125.61304946 355.84562125 -138.3352244 369.47905022 -151.99511719 383.15625 C-152.96074681 384.12652422 -153.9261849 385.09698908 -154.89144897 386.06762695 C-157.48426788 388.67340824 -160.08027474 391.27598877 -162.67734432 393.87753296 C-164.30730181 395.51044571 -165.9366808 397.14393363 -167.56589508 398.77758789 C-172.68565839 403.91097938 -177.8073863 409.04239844 -182.93202662 414.17092133 C-188.8073649 420.05073833 -194.67610471 425.93703741 -200.53918338 431.82907867 C-205.10062546 436.41225488 -209.66793053 440.98953562 -214.23958707 445.56252289 C-216.95703286 448.28100772 -219.67208629 451.00177483 -222.38100433 453.72875977 C-251.12738299 482.6558919 -279.98465207 502.15979475 -322 502.5 C-339.93834173 502.37678941 -355.70852181 499.49596337 -372 492 C-373.02222656 491.54882812 -374.04445313 491.09765625 -375.09765625 490.6328125 C-402.75016898 477.73559313 -424.45982638 452.9395356 -435.36572266 424.68310547 C-446.24240394 394.77930205 -445.31270526 360.93339208 -432 332 C-431.54882812 330.97777344 -431.09765625 329.95554687 -430.6328125 328.90234375 C-419.99085317 306.08526145 -400.24590409 289.06426826 -382.76171875 271.5234375 C-381.68627404 270.44393355 -380.61085836 269.36440067 -379.53547096 268.28483963 C-374.4837889 263.21419508 -369.42975728 258.14590702 -364.37278336 253.08054006 C-358.58188786 247.27986654 -352.79938486 241.47099114 -347.02380913 235.65506494 C-342.52436611 231.12529224 -338.01711219 226.6033847 -333.5041278 222.08710349 C-330.82392876 219.40457596 -328.14700391 216.71898 -325.47839928 214.02491379 C-312.58697014 201.01677059 -300.02281452 188.65071441 -283.5625 180.1875 C-282.51316284 179.62953735 -282.51316284 179.62953735 -281.44262695 179.06030273 C-277.26727307 176.91411914 -273.19143693 175.36143013 -268.67163086 174.11132812 C-262.88833526 172.67264592 -262.88833526 172.67264592 -258.42578125 169.0390625 C-257.38482112 166.39493593 -256.71321861 163.75098607 -256 161 C-254.98037147 158.38634304 -253.9342151 155.81847612 -252.8125 153.25 C-252.51520996 152.56615234 -252.21791992 151.88230469 -251.91162109 151.17773438 C-244.71646682 135.10465771 -233.28788092 121.97883955 -220.91308594 109.63842773 C-219.93738884 108.65836829 -218.96210548 107.6778968 -217.98719788 106.697052 C-215.36974336 104.06636033 -212.74608103 101.44194916 -210.12072659 98.81914401 C-207.91503704 96.6145346 -205.71235464 94.40693213 -203.50958943 92.19940144 C-198.30542783 86.98419764 -193.0960233 81.77427284 -187.88330078 76.56762695 C-182.53788688 71.22824943 -177.20171276 65.87976392 -171.86997581 60.52673191 C-167.2619251 55.90096684 -162.64798181 51.28113592 -158.02944589 46.66583973 C-155.2843251 43.92251623 -152.54138142 41.17710967 -149.80419159 38.4258709 C-109.07290637 -2.49654075 -56.67660806 -26.07779192 0 0 Z M-73 55 C-73.85464844 55.32742187 -74.70929688 55.65484375 -75.58984375 55.9921875 C-91.11513015 62.71245365 -103.52472418 79.34579368 -115.30119634 91.1010077 C-116.86002832 92.65687983 -118.41943325 94.21217559 -119.979002 95.76730919 C-124.87368787 100.64839674 -129.76642604 105.53142387 -134.65626341 110.41736871 C-140.27579021 116.03239451 -145.90184326 121.64077363 -151.53351408 127.24361879 C-155.91019652 131.59868114 -160.2810936 135.9594949 -164.6476478 140.32471198 C-167.24683511 142.92285409 -169.84836796 145.51853624 -172.4559803 148.10822487 C-175.35540385 150.98809318 -178.24274003 153.87979415 -181.12915039 156.77270508 C-181.98783218 157.62217209 -182.84651398 158.4716391 -183.73121643 159.34684753 C-187.68507336 163.32871475 -190.94644903 166.73719779 -193 172 C-191.77925781 172.49628906 -190.55851563 172.99257812 -189.30078125 173.50390625 C-153.04381088 188.39239113 -129.80567161 210.03064825 -114.62109375 246.29296875 C-113.7197312 248.51967971 -112.84039842 250.74972264 -112 253 C-105.12702802 249.6561522 -100.30791439 244.73823684 -94.953125 239.35717773 C-93.95914592 238.36890906 -92.96454027 237.38127025 -91.96936035 236.39421082 C-89.28045188 233.72318111 -86.60111819 231.04274083 -83.92399597 228.35990405 C-81.68061909 226.11342566 -79.43265038 223.87157019 -77.18471146 221.62965828 C-71.87541119 216.33438622 -66.57392944 211.03137622 -61.27734375 205.72338867 C-55.83305903 200.26764254 -50.37615362 194.82476371 -44.9127388 189.3881802 C-40.20627998 184.70396255 -35.50771331 180.01192967 -30.81528854 175.31365353 C-28.01992652 172.51493861 -25.22182404 169.7191219 -22.4161377 166.93075371 C-19.77389413 164.30411035 -17.1417463 161.66773256 -14.51664734 159.02395821 C-13.1064769 157.60841305 -11.68655816 156.20259947 -10.26623535 154.79724121 C3.16235272 141.2146939 9.31421655 126.94633234 9.38500977 108.01000977 C9.122837 92.26122089 3.07409463 79.17448022 -7.75 67.75 C-20.6677332 55.51112666 -35.15851279 50.2239594 -52.76489258 50.47412109 C-59.96635467 50.77130436 -66.33722952 52.20145106 -73 55 Z M-274.39065552 250.09738159 C-275.30467133 251.01230377 -276.21868713 251.92722595 -277.16040039 252.86987305 C-278.15474324 253.8582191 -279.14949061 254.84615832 -280.14460754 255.83372498 C-282.82704644 258.49861522 -285.50307991 261.16984673 -288.17739797 263.84288383 C-289.85348806 265.51754559 -291.5309972 267.19077234 -293.20901299 268.86350441 C-299.07709414 274.71312317 -304.94002789 280.56784407 -310.7980957 286.42749023 C-316.23646023 291.8670556 -321.68587633 297.2953708 -327.1406098 302.71851701 C-331.84272976 307.39438713 -336.5370058 312.07803665 -341.22538179 316.76768714 C-344.01711983 319.55993219 -346.81179194 322.34906636 -349.61442757 325.13037682 C-352.25249269 327.74891174 -354.88055965 330.37710198 -357.50164604 333.01262856 C-358.90939267 334.42342375 -360.32692969 335.82442916 -361.74487305 337.22497559 C-375.17706969 350.78876364 -381.31427109 365.06825599 -381.38500977 383.98999023 C-381.122837 399.73877911 -375.07409463 412.82551978 -364.25 424.25 C-351.3322668 436.48887334 -336.84148721 441.7760406 -319.23510742 441.52587891 C-312.03364533 441.22869564 -305.66277048 439.79854894 -299 437 C-297.71802734 436.50886719 -297.71802734 436.50886719 -296.41015625 436.0078125 C-280.6999164 429.20748751 -268.24914001 412.42821145 -256.29494548 400.49513412 C-254.70261194 398.90575968 -253.10970511 397.31696191 -251.51663399 395.7283268 C-246.51729578 390.74258868 -241.51990656 385.75490952 -236.52541822 380.76431292 C-230.78477105 375.02816642 -225.03759731 369.29866438 -219.28480428 363.57469958 C-214.81470504 359.1262191 -210.35038952 354.67198816 -205.89041811 350.21335393 C-203.23533988 347.55932104 -200.57791344 344.90774836 -197.91441154 342.26216698 C-194.95272425 339.32003191 -192.00311839 336.36606479 -189.05444336 333.41088867 C-188.17706009 332.54272018 -187.29967682 331.6745517 -186.39570618 330.78007507 C-182.40437457 326.76106031 -179.06065365 323.32056417 -177 318 C-177.680625 317.731875 -178.36125 317.46375 -179.0625 317.1875 C-211.75633834 303.97084195 -238.06053439 283.41995564 -252.52734375 250.4765625 C-254.41954116 246.00957127 -256.28130977 241.53691519 -258 237 C-263.36965 237 -270.90143178 246.64280121 -274.39065552 250.09738159 Z " fill="#73BCFE" transform="translate(442,10)"/>
<path d="M0 0 C1.02222656 0.45117188 2.04445313 0.90234375 3.09765625 1.3671875 C30.75016898 14.26440687 52.45982638 39.0604644 63.36572266 67.31689453 C74.24240394 97.22069795 73.31270526 131.06660792 60 160 C59.54882812 161.02222656 59.09765625 162.04445312 58.6328125 163.09765625 C48.39902469 185.03959114 29.7213036 201.44850613 12.89465261 218.30553603 C11.33404459 219.86910624 9.77401208 221.43324855 8.21413994 222.99755287 C3.30955176 227.91574925 -1.596985 232.83198897 -6.50643629 237.74533099 C-12.13102988 243.37441019 -17.74900591 249.00998581 -23.36136621 254.65126151 C-27.73260698 259.04422457 -32.10969859 263.43130292 -36.49114805 267.81408387 C-39.09395592 270.41793084 -41.69436791 273.02405877 -44.28864861 275.63640404 C-47.18394765 278.55147988 -50.09132335 281.45422863 -52.99975586 284.35620117 C-53.83700195 285.20266205 -54.67424805 286.04912292 -55.53686523 286.92123413 C-63.61751284 294.94621041 -72.5773162 302.08710239 -82.5625 307.625 C-83.21162354 307.98907959 -83.86074707 308.35315918 -84.52954102 308.72827148 C-103.54288015 319 -103.54288015 319 -111 319 C-110.56157934 315.34649452 -110.12571161 311.71492482 -109.48828125 308.08984375 C-106.69380926 291.46174445 -107.52724233 275.42812306 -111 259 C-111.34389897 257.00178965 -111.68122969 255.00237274 -112 253 C-111.46631113 252.60731556 -110.93262226 252.21463112 -110.382761 251.81004715 C-104.1082419 247.07662582 -98.55082219 241.84704985 -93.00146484 236.29199219 C-92.0365291 235.3330565 -91.07119014 234.37452642 -90.10548401 233.41636658 C-87.50783024 230.83622527 -84.9165476 228.24977912 -82.32699537 225.66150951 C-80.70332947 224.03927367 -79.07824404 222.41847376 -77.45265579 220.79816437 C-71.76612491 215.13008171 -66.0847272 209.45691255 -60.40820312 203.77880859 C-55.14079594 198.51019996 -49.86233217 193.25285273 -44.57856405 188.00065684 C-40.02079435 183.4691408 -35.47087347 178.92984251 -30.92684901 174.38454366 C-28.22231507 171.67950296 -25.5148568 168.97756915 -22.7994194 166.28347015 C-20.24423387 163.7478223 -17.69906199 161.20251475 -15.16085625 158.64987373 C-13.79844338 157.28441447 -12.42624557 155.92873949 -11.05363464 154.5735321 C2.28615787 141.09884945 8.31481548 126.7861259 8.38500977 108.01000977 C8.12847092 92.59965224 2.32953375 79.49075461 -8.25 68.25 C-20.97542332 56.27313099 -35.51533545 51.22902935 -52.76489258 51.47412109 C-59.96635467 51.77130436 -66.33722952 53.20145106 -73 56 C-74.28197266 56.49113281 -74.28197266 56.49113281 -75.58984375 56.9921875 C-91.56415271 63.90681729 -104.33957212 81.14252083 -116.48828125 93.25 C-117.51584752 94.27350692 -118.54344266 95.29698485 -119.5710659 96.32043457 C-124.39448594 101.12490392 -129.21555833 105.93171366 -134.03370982 110.74146652 C-139.5570912 116.25505326 -145.08868572 121.76022754 -150.62727767 127.25853348 C-154.93871631 131.53970244 -159.2423455 135.8286239 -163.54032677 140.12330246 C-166.09477219 142.67541401 -168.65231544 145.22421224 -171.218256 147.76477051 C-174.07903122 150.59768652 -176.92343362 153.44653177 -179.7668457 156.296875 C-180.60179565 157.11901489 -181.43674561 157.94115479 -182.29699707 158.78820801 C-190.8127497 167.37945985 -196.37727931 176.46962016 -200 188 C-200.33 188.99 -200.66 189.98 -201 191 C-202.34653015 208.36411839 -200.75863175 225.62495682 -189.1875 239.48046875 C-187.63081937 241.28471905 -186.05531397 243.07059104 -184.47290039 244.85229492 C-171.16857106 259.87760296 -166.80713868 275.23014074 -168 295 C-169.12510947 303.43389148 -171.79172789 310.63136544 -176 318 C-204.27600312 312.13715702 -228.77022019 291.50612993 -244.39477539 267.89355469 C-261.06816325 241.79037779 -265.91058421 208.80177126 -260.875 178.4375 C-254.04919007 148.46743222 -238.78056279 127.64756524 -217.28027344 106.11914062 C-216.35374466 105.18764694 -215.42721588 104.25615326 -214.47261047 103.2964325 C-211.96036438 100.77123029 -209.44493616 98.24922342 -206.92844296 95.72825432 C-205.34873886 94.14559396 -203.76961288 92.56235889 -202.19065094 90.97895813 C-197.22786394 86.0025447 -192.26311377 81.02810249 -187.29545093 76.05655622 C-181.60179337 70.35842015 -175.9147361 64.6538039 -170.23333907 58.94344378 C-165.812026 54.50039094 -161.38484496 50.06323958 -156.95331407 45.63037825 C-154.31970436 42.99572991 -151.68848444 40.35880541 -149.0634079 37.71565247 C-108.6223603 -2.98793662 -56.1092881 -25.81675915 0 0 Z " fill="#FE9F00" transform="translate(442,10)"/>
<path d="M0 0 C-0.2165625 0.84175781 -0.433125 1.68351563 -0.65625 2.55078125 C-4.68824378 20.52675354 -4.37972573 39.51559582 -0.65625 57.5234375 C-0.07890095 60.58201284 0.34978802 62.92628566 0 66 C-1.61078453 67.67177963 -1.61078453 67.67177963 -3.86361694 69.1942749 C-9.49699828 73.27513647 -14.27312785 77.97766262 -19.18212891 82.89160156 C-20.16676858 83.87024163 -21.15181167 84.84847594 -22.13722229 85.82633972 C-24.78859551 88.46019589 -27.43359379 91.10036207 -30.07686281 93.74234867 C-31.73403046 95.39808652 -33.3926177 97.0523887 -35.05170822 98.70619965 C-40.85494917 104.4909908 -46.65305575 110.2808706 -52.44628906 116.07568359 C-57.82275852 121.45335451 -63.21028666 126.81976609 -68.60311759 132.18102479 C-73.25430298 136.80595992 -77.89764368 141.43867451 -82.53508508 146.07739043 C-85.29550957 148.83832179 -88.05886318 151.59614518 -90.83018875 154.346138 C-93.43789988 156.93431728 -96.03560868 159.53215207 -98.62634087 162.13732338 C-100.01737963 163.5314099 -101.41820675 164.91570868 -102.81944275 166.29954529 C-116.21746144 179.83034942 -122.3144724 194.12210591 -122.38500977 212.98999023 C-122.12140451 228.82482911 -115.78790982 240.76511273 -106 253 C-120.19 267.19 -134.38 281.38 -149 296 C-169.02342528 279.31381227 -181.56063467 251.79120638 -184 226 C-185.44464789 203.00817087 -183.66373712 182.00284574 -174 161 C-173.54882812 159.97777344 -173.09765625 158.95554687 -172.6328125 157.90234375 C-161.99085317 135.08526145 -142.24590409 118.06426826 -124.76171875 100.5234375 C-123.68627404 99.44393355 -122.61085836 98.36440067 -121.53547096 97.28483963 C-116.4837889 92.21419508 -111.42975728 87.14590702 -106.37278336 82.08054006 C-100.58188786 76.27986654 -94.79938486 70.47099114 -89.02380913 64.65506494 C-84.52436611 60.12529224 -80.01711219 55.6033847 -75.5041278 51.08710349 C-72.82392876 48.40457596 -70.14700391 45.71898 -67.47839928 43.02491379 C-54.59162712 30.02146973 -42.02680476 17.63400412 -25.5625 9.1875 C-24.86439209 8.82277588 -24.16628418 8.45805176 -23.44702148 8.08227539 C-7.50353361 0 -7.50353361 0 0 0 Z " fill="#9ECFFE" transform="translate(184,181)"/>
<path d="M0 0 C14.13567216 6.5244417 24.06191644 28.57509598 29.36572266 42.31689453 C40.24240394 72.22069795 39.31270526 106.06660792 26 135 C25.54882812 136.02222656 25.09765625 137.04445312 24.6328125 138.09765625 C14.39902469 160.03959114 -4.2786964 176.44850613 -21.10534739 193.30553603 C-22.66595541 194.86910624 -24.22598792 196.43324855 -25.78586006 197.99755287 C-30.69044824 202.91574925 -35.596985 207.83198897 -40.50643629 212.74533099 C-46.13102988 218.37441019 -51.74900591 224.00998581 -57.36136621 229.65126151 C-61.73260698 234.04422457 -66.10969859 238.43130292 -70.49114805 242.81408387 C-73.09395592 245.41793084 -75.69436791 248.02405877 -78.28864861 250.63640404 C-81.18394765 253.55147988 -84.09132335 256.45422863 -86.99975586 259.35620117 C-87.83700195 260.20266205 -88.67424805 261.04912292 -89.53686523 261.92123413 C-97.61751284 269.94621041 -106.5773162 277.08710239 -116.5625 282.625 C-117.21162354 282.98907959 -117.86074707 283.35315918 -118.52954102 283.72827148 C-137.54288015 294 -137.54288015 294 -145 294 C-144.56157934 290.34649452 -144.12571161 286.71492482 -143.48828125 283.08984375 C-140.69380926 266.46174445 -141.52724233 250.42812306 -145 234 C-145.34389897 232.00178965 -145.68122969 230.00237274 -146 228 C-145.46631113 227.60731556 -144.93262226 227.21463112 -144.382761 226.81004715 C-138.1082419 222.07662582 -132.55082219 216.84704985 -127.00146484 211.29199219 C-126.0365291 210.3330565 -125.07119014 209.37452642 -124.10548401 208.41636658 C-121.50783024 205.83622527 -118.9165476 203.24977912 -116.32699537 200.66150951 C-114.70332947 199.03927367 -113.07824404 197.41847376 -111.45265579 195.79816437 C-105.76612491 190.13008171 -100.0847272 184.45691255 -94.40820312 178.77880859 C-89.14079594 173.51019996 -83.86233217 168.25285273 -78.57856405 163.00065684 C-74.02079435 158.4691408 -69.47087347 153.92984251 -64.92684901 149.38454366 C-62.22231507 146.67950296 -59.5148568 143.97756915 -56.7994194 141.28347015 C-54.24423387 138.7478223 -51.69906199 136.20251475 -49.16085625 133.64987373 C-47.79844338 132.28441447 -46.42624557 130.92873949 -45.05363464 129.5735321 C-31.71384213 116.09884945 -25.68518452 101.7861259 -25.61499023 83.01000977 C-25.84583983 69.14281203 -30.43601803 55.84412945 -40.21484375 45.703125 C-40.80394531 45.14109375 -41.39304687 44.5790625 -42 44 C-40.54131246 40.64000982 -38.69131052 38.44796894 -36.10107422 35.87402344 C-35.3003952 35.07349548 -34.49971619 34.27296753 -33.67477417 33.44818115 C-32.37783127 32.16672211 -32.37783127 32.16672211 -31.0546875 30.859375 C-30.1696756 29.97719299 -29.2846637 29.09501099 -28.37283325 28.18609619 C-26.02549869 25.84805457 -23.67393215 23.51444126 -21.32019043 21.18286133 C-18.91686073 18.80003474 -16.51922233 16.41149652 -14.12109375 14.0234375 C-9.41928533 9.34368138 -4.71181336 4.66968133 0 0 Z " fill="#FE7815" transform="translate(476,35)"/>
<path d="M0 0 C9.94620719 8.10250353 16.04903373 19.22669251 18 32 C18.76093775 46.86755303 17.52608785 59.82190942 10 73 C-9.77546616 68.89968736 -26.45460933 57.61597274 -41 44 C-40.43045162 40.23318786 -38.88765569 38.52194106 -36.21459961 35.87402344 C-35.01346779 34.67323151 -35.01346779 34.67323151 -33.78807068 33.44818115 C-32.91828079 32.59387512 -32.04849091 31.73956909 -31.15234375 30.859375 C-30.2659169 29.97719299 -29.37949005 29.09501099 -28.46620178 28.18609619 C-26.11236944 25.84621423 -23.75226246 23.51304602 -21.38885498 21.18286133 C-18.97711583 18.80185337 -16.57388521 16.41229147 -14.16992188 14.0234375 C-9.45441941 9.3410322 -4.73045844 4.66729272 0 0 Z " fill="#FE7816" transform="translate(256,255)"/>
<path d="M0 0 C4.95431757 0.59144566 9.175155 2.15024432 13.6875 4.1875 C14.74578003 4.66159302 14.74578003 4.66159302 15.82543945 5.14526367 C29.52077562 11.35566728 42.741231 18.83133217 52 31 C51.51785034 31.41109512 51.03570068 31.82219025 50.53894043 32.2457428 C45.40538013 36.67317169 40.55591846 41.31134159 35.78125 46.12109375 C34.66623108 47.23823509 34.66623108 47.23823509 33.52868652 48.37794495 C31.18340699 50.72876745 28.84165164 53.08306431 26.5 55.4375 C24.89867039 57.04385199 23.29711002 58.64997397 21.6953125 60.25585938 C17.79420527 64.16791985 13.8959758 68.08282952 10 72 C1.42679452 67.94693221 -2.74783778 57.91868232 -5.9765625 49.43359375 C-10.38076094 34.96559609 -9.69466887 18.19695028 -2.84375 4.7265625 C-1.95349991 3.11775341 -0.98715212 1.55123905 0 0 Z " fill="#9ECFFE" transform="translate(248,182)"/>
</svg>
